<svg width="188" height="55" viewBox="0 0 188 55" fill="none" xmlns="http://www.w3.org/2000/svg">
<path d="M12.0178 5.76232C6.83651 9.37717 4.94405 11.6922 2.37389 16.0505L29.822 2.96981C23.018 2.08236 19.1606 2.16863 12.0178 5.76232Z" fill="#2563EB" style="fill:#2563EB;fill:color(display-p3 0.1451 0.3882 0.9216);fill-opacity:1;"/>
<path d="M18.1009 15.1687C18.1009 15.1687 6.11932 21.32 0 25.8978V31.6297C15.843 21.4693 25.2453 16.6395 43.6202 10.7594L39.4659 7.52601C31.372 9.2285 18.1009 15.1687 18.1009 15.1687Z" fill="#2563EB" style="fill:#2563EB;fill:color(display-p3 0.1451 0.3882 0.9216);fill-opacity:1;"/>
<path d="M27.4481 23.9871L2.37389 36.1859L4.30267 40.1542L29.822 28.2493L31.7507 32.3646L39.0208 20.9006L25.6677 20.4597L27.4481 23.9871Z" fill="#2563EB" style="fill:#2563EB;fill:color(display-p3 0.1451 0.3882 0.9216);fill-opacity:1;"/>
<path d="M49.4065 25.1629C34.4713 34.3427 25.3583 38.7912 7.4184 45.4453L12.0178 48.8257C12.0178 48.8257 23.9541 44.9617 31.1573 41.477C38.8899 37.7362 50 30.16 50 30.16L49.4065 25.1629Z" fill="#2563EB" style="fill:#2563EB;fill:color(display-p3 0.1451 0.3882 0.9216);fill-opacity:1;"/>
<path d="M46.1424 40.5951L23.1454 52.5C28.6713 52.1883 31.648 51.5855 36.6469 49.4136C41.1891 46.3879 43.1444 44.3981 46.1424 40.5951Z" fill="#2563EB" style="fill:#2563EB;fill:color(display-p3 0.1451 0.3882 0.9216);fill-opacity:1;"/>
<path d="M63.3525 37.71C61.8925 37.71 60.5725 37.46 59.3925 36.96C58.2325 36.46 57.3125 35.74 56.6325 34.8C55.9525 33.86 55.6025 32.75 55.5825 31.47H60.0825C60.1425 32.33 60.4425 33.01 60.9825 33.51C61.5425 34.01 62.3025 34.26 63.2625 34.26C64.2425 34.26 65.0125 34.03 65.5725 33.57C66.1325 33.09 66.4125 32.47 66.4125 31.71C66.4125 31.09 66.2225 30.58 65.8425 30.18C65.4625 29.78 64.9825 29.47 64.4025 29.25C63.8425 29.01 63.0625 28.75 62.0625 28.47C60.7025 28.07 59.5925 27.68 58.7325 27.3C57.8925 26.9 57.1625 26.31 56.5425 25.53C55.9425 24.73 55.6425 23.67 55.6425 22.35C55.6425 21.11 55.9525 20.03 56.5725 19.11C57.1925 18.19 58.0625 17.49 59.1825 17.01C60.3025 16.51 61.5825 16.26 63.0225 16.26C65.1825 16.26 66.9325 16.79 68.2725 17.85C69.6325 18.89 70.3825 20.35 70.5225 22.23H65.9025C65.8625 21.51 65.5525 20.92 64.9725 20.46C64.4125 19.98 63.6625 19.74 62.7225 19.74C61.9025 19.74 61.2425 19.95 60.7425 20.37C60.2625 20.79 60.0225 21.4 60.0225 22.2C60.0225 22.76 60.2025 23.23 60.5625 23.61C60.9425 23.97 61.4025 24.27 61.9425 24.51C62.5025 24.73 63.2825 24.99 64.2825 25.29C65.6425 25.69 66.7525 26.09 67.6125 26.49C68.4725 26.89 69.2125 27.49 69.8325 28.29C70.4525 29.09 70.7625 30.14 70.7625 31.44C70.7625 32.56 70.4725 33.6 69.8925 34.56C69.3125 35.52 68.4625 36.29 67.3425 36.87C66.2225 37.43 64.8925 37.71 63.3525 37.71ZM77.4038 23.28C77.9438 22.52 78.6838 21.89 79.6238 21.39C80.5838 20.87 81.6738 20.61 82.8938 20.61C84.3138 20.61 85.5938 20.96 86.7338 21.66C87.8938 22.36 88.8038 23.36 89.4638 24.66C90.1438 25.94 90.4838 27.43 90.4838 29.13C90.4838 30.83 90.1438 32.34 89.4638 33.66C88.8038 34.96 87.8938 35.97 86.7338 36.69C85.5938 37.41 84.3138 37.77 82.8938 37.77C81.6738 37.77 80.5938 37.52 79.6538 37.02C78.7338 36.52 77.9838 35.89 77.4038 35.13V45.42H73.2038V20.88H77.4038V23.28ZM86.1938 29.13C86.1938 28.13 85.9838 27.27 85.5638 26.55C85.1638 25.81 84.6238 25.25 83.9438 24.87C83.2838 24.49 82.5638 24.3 81.7838 24.3C81.0238 24.3 80.3038 24.5 79.6238 24.9C78.9638 25.28 78.4238 25.84 78.0038 26.58C77.6038 27.32 77.4038 28.19 77.4038 29.19C77.4038 30.19 77.6038 31.06 78.0038 31.8C78.4238 32.54 78.9638 33.11 79.6238 33.51C80.3038 33.89 81.0238 34.08 81.7838 34.08C82.5638 34.08 83.2838 33.88 83.9438 33.48C84.6238 33.08 85.1638 32.51 85.5638 31.77C85.9838 31.03 86.1938 30.15 86.1938 29.13ZM107.786 28.83C107.786 29.43 107.746 29.97 107.666 30.45H95.5158C95.6158 31.65 96.0358 32.59 96.7758 33.27C97.5158 33.95 98.4258 34.29 99.5058 34.29C101.066 34.29 102.176 33.62 102.836 32.28H107.366C106.886 33.88 105.966 35.2 104.606 36.24C103.246 37.26 101.576 37.77 99.5958 37.77C97.9958 37.77 96.5558 37.42 95.2758 36.72C94.0158 36 93.0258 34.99 92.3058 33.69C91.6058 32.39 91.2558 30.89 91.2558 29.19C91.2558 27.47 91.6058 25.96 92.3058 24.66C93.0058 23.36 93.9858 22.36 95.2458 21.66C96.5058 20.96 97.9558 20.61 99.5958 20.61C101.176 20.61 102.586 20.95 103.826 21.63C105.086 22.31 106.056 23.28 106.736 24.54C107.436 25.78 107.786 27.21 107.786 28.83ZM103.436 27.63C103.416 26.55 103.026 25.69 102.266 25.05C101.506 24.39 100.576 24.06 99.4758 24.06C98.4358 24.06 97.5558 24.38 96.8358 25.02C96.1358 25.64 95.7058 26.51 95.5458 27.63H103.436ZM108.571 29.13C108.571 27.45 108.901 25.96 109.561 24.66C110.241 23.36 111.151 22.36 112.291 21.66C113.451 20.96 114.741 20.61 116.161 20.61C117.401 20.61 118.481 20.86 119.401 21.36C120.341 21.86 121.091 22.49 121.651 23.25V20.88H125.881V37.5H121.651V35.07C121.111 35.85 120.361 36.5 119.401 37.02C118.461 37.52 117.371 37.77 116.131 37.77C114.731 37.77 113.451 37.41 112.291 36.69C111.151 35.97 110.241 34.96 109.561 33.66C108.901 32.34 108.571 30.83 108.571 29.13ZM121.651 29.19C121.651 28.17 121.451 27.3 121.051 26.58C120.651 25.84 120.111 25.28 119.431 24.9C118.751 24.5 118.021 24.3 117.241 24.3C116.461 24.3 115.741 24.49 115.081 24.87C114.421 25.25 113.881 25.81 113.461 26.55C113.061 27.27 112.861 28.13 112.861 29.13C112.861 30.13 113.061 31.01 113.461 31.77C113.881 32.51 114.421 33.08 115.081 33.48C115.761 33.88 116.481 34.08 117.241 34.08C118.021 34.08 118.751 33.89 119.431 33.51C120.111 33.11 120.651 32.55 121.051 31.83C121.451 31.09 121.651 30.21 121.651 29.19ZM138.623 37.5L132.983 30.42V37.5H128.783V15.3H132.983V27.93L138.563 20.88H144.023L136.703 29.22L144.083 37.5H138.623ZM166.741 20.88V37.5H162.511V35.4C161.971 36.12 161.261 36.69 160.381 37.11C159.521 37.51 158.581 37.71 157.561 37.71C156.261 37.71 155.111 37.44 154.111 36.9C153.111 36.34 152.321 35.53 151.741 34.47C151.181 33.39 150.901 32.11 150.901 30.63V20.88H155.101V30.03C155.101 31.35 155.431 32.37 156.091 33.09C156.751 33.79 157.651 34.14 158.791 34.14C159.951 34.14 160.861 33.79 161.521 33.09C162.181 32.37 162.511 31.35 162.511 30.03V20.88H166.741ZM173.885 23.28C174.425 22.52 175.165 21.89 176.105 21.39C177.065 20.87 178.155 20.61 179.375 20.61C180.795 20.61 182.075 20.96 183.215 21.66C184.375 22.36 185.285 23.36 185.945 24.66C186.625 25.94 186.965 27.43 186.965 29.13C186.965 30.83 186.625 32.34 185.945 33.66C185.285 34.96 184.375 35.97 183.215 36.69C182.075 37.41 180.795 37.77 179.375 37.77C178.155 37.77 177.075 37.52 176.135 37.02C175.215 36.52 174.465 35.89 173.885 35.13V45.42H169.685V20.88H173.885V23.28ZM182.675 29.13C182.675 28.13 182.465 27.27 182.045 26.55C181.645 25.81 181.105 25.25 180.425 24.87C179.765 24.49 179.045 24.3 178.265 24.3C177.505 24.3 176.785 24.5 176.105 24.9C175.445 25.28 174.905 25.84 174.485 26.58C174.085 27.32 173.885 28.19 173.885 29.19C173.885 30.19 174.085 31.06 174.485 31.8C174.905 32.54 175.445 33.11 176.105 33.51C176.785 33.89 177.505 34.08 178.265 34.08C179.045 34.08 179.765 33.88 180.425 33.48C181.105 33.08 181.645 32.51 182.045 31.77C182.465 31.03 182.675 30.15 182.675 29.13Z" fill="#2563EB" style="fill:#2563EB;fill:color(display-p3 0.1451 0.3882 0.9216);fill-opacity:1;"/>
</svg>
